Coordinates
version=1
nRows=18
nColumns=26
inDegrees=yes

Units are S.I. units (second, meters, Newtons, ...)
If the header above contains a line with 'inDegrees', this indicates whether rotational values are in degrees (yes) or radians (no).

endheader
time	pelvis_tilt	pelvis_list	pelvis_rotation	pelvis_tx	pelvis_ty	pelvis_tz	hip_flexion_r	hip_adduction_r	hip_rotation_r	knee_angle_r	knee_angle_r_beta	ankle_angle_r	subtalar_angle_r	mtp_angle_r	hip_flexion_l	hip_adduction_l	hip_rotation_l	knee_angle_l	knee_angle_l_beta	ankle_angle_l	subtalar_angle_l	mtp_angle_l	lumbar_extension	lumbar_bending	lumbar_rotation
      0.86800000	     -4.89339974	     -8.39538660	     -7.58788658	      1.06146646	      0.97157888	      0.18305631	     34.25957119	      5.24658754	    -23.88941726	     30.66460033	      0.53519824	     -2.95040363	      0.00000000	     13.43985239	    -15.44683577	     -1.14505679	     -9.36591011	     92.16147666	      1.60852121	    -10.05697196	      0.00000000	     48.63349269	    -10.31681835	     13.64532796	     -3.96740190
      0.87200000	     -4.50447526	     -8.26433323	     -7.78994637	      1.08744744	      0.96951487	      0.18327671	     32.84803830	      5.36157024	    -22.59734887	     31.69047701	      0.55310317	      1.17291479	      0.00000000	     12.14362533	    -14.62130387	     -1.31645704	     -9.55624414	     95.23396618	      1.66214627	     -8.69654958	      0.00000000	     48.13840320	    -10.85615321	     13.47565132	     -3.04959308
      0.87600000	     -4.26177371	     -7.93968746	     -8.04785600	      1.11323647	      0.96710929	      0.18333527	     31.74321522	      5.25623215	    -21.83598113	     33.24473982	      0.58023017	      4.97058975	      0.00000000	     10.96300071	    -13.52340674	     -1.21418736	     -9.62976927	     98.26783769	      1.71509732	     -7.18986263	      0.00000000	     47.61728100	    -11.24051714	     13.14094337	     -2.10984092
      0.88000000	     -3.97501784	     -7.90181140	     -8.11246666	      1.13903558	      0.96499018	      0.18388847	     30.48418960	      5.58594185	    -20.31105298	     34.67802809	      0.60524577	      8.42255304	      0.00000000	     10.00674120	    -12.43566775	     -1.53141913	     -9.48148470	    101.30247023	      1.76806165	     -5.75981779	      0.00000000	     47.10322607	    -11.68879544	     13.04434430	     -1.26510985
      0.88400000	     -3.90943268	     -8.11703713	     -7.97957205	      1.16394032	      0.96264828	      0.18413748	     29.54562692	      6.06178425	    -19.19528918	     36.14156092	      0.63078923	     11.13033747	      0.00000000	      9.42005777	    -10.92510890	     -2.13628657	     -8.96517597	    104.53834879	      1.82453838	     -4.32319237	      0.00000000	     46.60924523	    -12.01552841	     13.27011177	     -0.57981793
      0.88800000	     -3.63187343	     -8.01778779	     -8.69801814	      1.18830143	      0.96109661	      0.18511773	     28.65441805	      6.44002649	    -17.42392082	     37.99838422	      0.66319692	     13.08784793	      0.00000000	      9.29531453	     -9.59446544	     -2.20679538	     -9.18298651	    107.42981625	      1.87500401	     -3.21771215	      0.00000000	     46.22864947	    -12.81364089	     13.01494783	      0.90986246
      0.89200000	     -3.31063944	     -8.10895957	     -8.92070801	      1.21241402	      0.95966514	      0.18587851	     27.90613620	      6.56065449	    -16.40688783	     40.25752926	      0.70262643	     15.17366115	      0.00000000	      9.25144622	     -8.14066165	     -2.57114715	     -8.83017605	    110.39216677	      1.92670678	     -2.14697330	      0.00000000	     45.88016690	    -13.63954635	     12.95063819	      1.88266158
      0.89600000	     -3.22259778	     -7.95547958	     -9.11750785	      1.23603131	      0.95788388	      0.18662508	     27.54554967	      6.38686288	    -15.34917931	     42.69073496	      0.74509389	     17.60139982	      0.00000000	      9.80871695	     -6.22614689	     -2.62568425	     -8.15791676	    113.36665599	      1.97862141	     -0.78913251	      0.00000000	     45.67764146	    -14.22693102	     12.66015813	      2.79181558
      0.90000000	     -2.77811331	     -7.88473964	     -9.24185479	      1.25990444	      0.95671189	      0.18768100	     26.70254856	      6.23316700	    -14.55518198	     45.26073017	      0.78994876	     20.65108106	      0.00000000	     16.27169520	     -4.64833126	     -2.78925852	     -7.48671185	    116.15693245	      2.02732092	      0.70867559	      0.00000000	     47.50514561	    -15.22354528	     12.30223280	      3.56079578
      0.90400000	     -2.36144410	     -7.95995590	     -9.43916584	      1.28375718	      0.95583363	      0.18853603	     25.64946806	      6.17847123	    -13.86699988	     47.11809655	      0.82236592	     22.27081104	      0.00000000	     16.09787295	     -3.01838061	     -3.01806423	     -6.71739054	    118.71690770	      2.07200092	      1.75692370	      0.00000000	     47.58198456	    -16.30110842	     12.07668227	      4.40659136
      0.90800000	     -1.82490640	     -8.27033290	     -9.65977262	      1.30778576	      0.95562967	      0.18929076	     24.15582235	      6.39277897	    -13.14246337	     48.42829347	      0.84523317	     23.17963484	      0.00000000	     15.96226363	     -1.52061387	     -3.59621370	     -6.03259343	    121.02992795	      2.11237074	      2.44511297	      0.00000000	     47.51223439	    -17.57893704	     12.07793686	      5.24876433
      0.91200000	     -1.50598078	     -8.44574152	     -9.93890970	      1.33188265	      0.95557242	      0.19014095	     22.71967290	      6.62880161	    -12.05578385	     49.39266815	      0.86206469	     24.09752124	      0.00000000	     15.93862784	      0.31723885	     -4.06346570	     -5.24582384	    123.15407551	      2.14944410	      3.29418420	      0.00000000	     47.45114598	    -18.56924980	     11.94446615	      6.00295498
      0.91600000	     -1.49153004	     -8.86145526	    -10.36229388	      1.35674500	      0.95567470	      0.19111895	     21.25570595	      7.22706889	    -10.86916831	     49.83884931	      0.86985202	     25.19910703	      0.00000000	     16.11283857	      2.32971092	     -4.89381354	     -4.52303644	    125.02614007	      2.18211780	      4.54663159	      0.00000000	     47.52392503	    -19.16104280	     12.08633738	      6.92538280
      0.92000000	     -1.65568273	     -9.07779694	    -10.63641309	      1.38155428	      0.95581192	      0.19188763	     19.94261326	      7.56741598	     -9.82532077	     50.25551104	      0.87712413	     26.17587659	      0.00000000	     19.54858785	      4.76638178	     -5.54636137	     -3.65309408	    126.80535776	      2.21317100	      6.90653722	      0.00000000	     51.94492664	    -19.47403819	     12.10298678	      7.71252041
      0.92400000	     -1.74015486	     -9.02441447	    -10.87211111	      1.40661040	      0.95622768	      0.19257726	     18.41353344	      7.55524579	     -8.81051036	     50.25264211	      0.87707406	     26.45766993	      0.00000000	     19.49855530	      7.11882855	     -5.86648547	     -2.70809269	    128.19719597	      2.23746316	      7.94142967	      0.00000000	     51.74354180	    -19.71026990	     11.82807216	      8.38138114
      0.92800000	     -2.18548658	     -8.83477197	    -11.12344570	      1.43169232	      0.95635451	      0.19322874	     17.25292306	      7.37741504	     -8.06377922	     50.20267955	      0.87620205	     26.63513884	      0.00000000	     19.41883048	      9.94669621	     -6.07922063	     -1.81698531	    129.48539243	      2.25994643	      9.85780939	      0.00000000	     51.84313781	    -19.47014677	     11.50007912	      9.11504869
      0.93200000	     -2.29509003	     -8.31629314	    -11.26251329	      1.45691462	      0.95693634	      0.19385979	     15.65595231	      6.78190550	     -7.31430093	     49.85190811	      0.87007993	     26.65607727	      0.00000000	     19.46475510	     12.56418250	     -5.83918190	     -0.92109751	    130.45243595	      2.27682452	     11.11700674	      0.00000000	     51.96260370	    -19.41151398	     10.74226024	      9.69348689
      0.93600000	     -2.65849237	     -7.70356615	    -11.28737198	      1.48243286	      0.95713499	      0.19434681	     14.29881922	      6.08443217	     -6.64954311	     49.43655077	      0.86283058	     26.61219934	      0.00000000	     19.48684986	     15.50473692	     -5.44112599	      0.10442396	    131.37064563	      2.29285031	     13.19350725	      0.00000000	     54.47181130	    -18.90437897	     10.00537751	     10.17166399
